<?xml version="1.0" encoding="us-ascii" standalone="no"?><svg xmlns="http://www.w3.org/2000/svg" xmlns:xlink="http://www.w3.org/1999/xlink" contentStyleType="text/css" height="518px" preserveAspectRatio="none" style="width:522px;height:518px;background:#FFFFFF;" version="1.1" viewBox="0 0 522 518" width="522px" zoomAndPan="magnify"><defs/><g><rect fill="#FFFFFF" height="107.4766" style="stroke:#000000;stroke-width:1.5;" width="416.5" x="93" y="128.959"/><rect fill="#FFFFFF" height="47.7383" style="stroke:#000000;stroke-width:1.5;" width="242" x="274" y="250.4355"/><rect fill="#FFFFFF" height="107.4766" style="stroke:#000000;stroke-width:1.5;" width="499.5" x="10" y="312.1738"/><line style="stroke:#181818;stroke-width:0.5;stroke-dasharray:5.0,5.0;" x1="52" x2="52" y1="82.0898" y2="436.6504"/><line style="stroke:#181818;stroke-width:0.5;stroke-dasharray:5.0,5.0;" x1="143" x2="143" y1="82.0898" y2="436.6504"/><line style="stroke:#181818;stroke-width:0.5;stroke-dasharray:5.0,5.0;" x1="337" x2="337" y1="82.0898" y2="436.6504"/><line style="stroke:#181818;stroke-width:0.5;stroke-dasharray:5.0,5.0;" x1="463.5" x2="463.5" y1="82.0898" y2="436.6504"/><text fill="#000000" font-family="Calibri" font-size="14" lengthAdjust="spacing" textLength="58" x="20" y="78.3301">Developer</text><ellipse cx="52" cy="13.5" fill="#E2E2F0" rx="8" ry="8" style="stroke:#181818;stroke-width:0.5;"/><path d="M52,21.5 L52,48.5 M39,29.5 L65,29.5 M52,48.5 L39,63.5 M52,48.5 L65,63.5 " fill="none" style="stroke:#181818;stroke-width:0.5;"/><text fill="#000000" font-family="Calibri" font-size="14" lengthAdjust="spacing" textLength="58" x="20" y="448.9805">Developer</text><ellipse cx="52" cy="461.2402" fill="#E2E2F0" rx="8" ry="8" style="stroke:#181818;stroke-width:0.5;"/><path d="M52,469.2402 L52,496.2402 M39,477.2402 L65,477.2402 M52,496.2402 L39,511.2402 M52,496.2402 L65,511.2402 " fill="none" style="stroke:#181818;stroke-width:0.5;"/><rect fill="#E2E2F0" height="31.0898" rx="2.5" ry="2.5" style="stroke:#181818;stroke-width:0.5;" width="80" x="103" y="50"/><text fill="#000000" font-family="Calibri" font-size="14" lengthAdjust="spacing" textLength="66" x="110" y="70.3301">ASGI Server</text><rect fill="#E2E2F0" height="31.0898" rx="2.5" ry="2.5" style="stroke:#181818;stroke-width:0.5;" width="80" x="103" y="435.6504"/><text fill="#000000" font-family="Calibri" font-size="14" lengthAdjust="spacing" textLength="66" x="110" y="455.9805">ASGI Server</text><rect fill="#E2E2F0" height="31.0898" rx="2.5" ry="2.5" style="stroke:#181818;stroke-width:0.5;" width="106" x="284" y="50"/><text fill="#000000" font-family="Calibri" font-size="14" lengthAdjust="spacing" textLength="92" x="291" y="70.3301">Lifespan handler</text><rect fill="#E2E2F0" height="31.0898" rx="2.5" ry="2.5" style="stroke:#181818;stroke-width:0.5;" width="106" x="284" y="435.6504"/><text fill="#000000" font-family="Calibri" font-size="14" lengthAdjust="spacing" textLength="92" x="291" y="455.9805">Lifespan handler</text><rect fill="#E2E2F0" height="31.0898" rx="2.5" ry="2.5" style="stroke:#181818;stroke-width:0.5;" width="71" x="428.5" y="50"/><text fill="#000000" font-family="Calibri" font-size="14" lengthAdjust="spacing" textLength="57" x="435.5" y="70.3301">User Code</text><rect fill="#E2E2F0" height="31.0898" rx="2.5" ry="2.5" style="stroke:#181818;stroke-width:0.5;" width="71" x="428.5" y="435.6504"/><text fill="#000000" font-family="Calibri" font-size="14" lengthAdjust="spacing" textLength="57" x="435.5" y="455.9805">User Code</text><polygon fill="#181818" points="131,109.959,141,113.959,131,117.959,135,113.959" style="stroke:#181818;stroke-width:1.0;"/><line style="stroke:#181818;stroke-width:1.0;" x1="52" x2="137" y1="113.959" y2="113.959"/><text fill="#000000" font-family="Calibri" font-size="13" font-weight="bold" lengthAdjust="spacing" textLength="15" x="59" y="108.4678">[1]</text><text fill="#000000" font-family="Calibri" font-size="13" lengthAdjust="spacing" textLength="26" x="78" y="108.4678">start</text><path d="M93,128.959 L178,128.959 L178,136.8281 L168,146.8281 L93,146.8281 L93,128.959 " fill="#EEEEEE" style="stroke:#000000;stroke-width:1.5;"/><rect fill="none" height="107.4766" style="stroke:#000000;stroke-width:1.5;" width="416.5" x="93" y="128.959"/><text fill="#000000" font-family="Calibri" font-size="13" font-weight="bold" lengthAdjust="spacing" textLength="40" x="108" y="142.3369">startup</text><polygon fill="#181818" points="325,164.6973,335,168.6973,325,172.6973,329,168.6973" style="stroke:#181818;stroke-width:1.0;"/><line style="stroke:#181818;stroke-width:1.0;" x1="143" x2="331" y1="168.6973" y2="168.6973"/><text fill="#000000" font-family="Calibri" font-size="13" font-weight="bold" lengthAdjust="spacing" textLength="15" x="150" y="163.2061">[2]</text><text fill="#000000" font-family="Calibri" font-size="13" lengthAdjust="spacing" textLength="26" x="169" y="163.2061">send</text><text fill="#000000" font-family="Consolas" font-size="13" lengthAdjust="spacing" textLength="112" x="201" y="163.4346">lifespan.startup</text><polygon fill="#181818" points="452,194.5664,462,198.5664,452,202.5664,456,198.5664" style="stroke:#181818;stroke-width:1.0;"/><line style="stroke:#181818;stroke-width:1.0;" x1="337" x2="458" y1="198.5664" y2="198.5664"/><text fill="#000000" font-family="Calibri" font-size="13" font-weight="bold" lengthAdjust="spacing" textLength="15" x="344" y="193.0752">[3]</text><text fill="#000000" font-family="Consolas" font-size="13" lengthAdjust="spacing" textLength="84" x="363" y="192.98">__aenter__()</text><polygon fill="#181818" points="154,224.4355,144,228.4355,154,232.4355,150,228.4355" style="stroke:#181818;stroke-width:1.0;"/><line style="stroke:#181818;stroke-width:1.0;stroke-dasharray:2.0,2.0;" x1="148" x2="336" y1="228.4355" y2="228.4355"/><text fill="#000000" font-family="Calibri" font-size="13" font-weight="bold" lengthAdjust="spacing" textLength="15" x="160" y="222.9443">[4]</text><text fill="#000000" font-family="Calibri" font-size="13" lengthAdjust="spacing" textLength="67" x="179" y="222.9443">collect state</text><path d="M274,250.4355 L343,250.4355 L343,258.3047 L333,268.3047 L274,268.3047 L274,250.4355 " fill="#EEEEEE" style="stroke:#000000;stroke-width:1.5;"/><rect fill="none" height="47.7383" style="stroke:#000000;stroke-width:1.5;" width="242" x="274" y="250.4355"/><text fill="#000000" font-family="Calibri" font-size="13" font-weight="bold" lengthAdjust="spacing" textLength="24" x="289" y="263.8135">loop</text><text fill="#000000" font-family="Calibri" font-size="11" font-weight="bold" lengthAdjust="spacing" textLength="153" x="358" y="262.9092">[On each incoming HTTP request]</text><polygon fill="#181818" points="452,286.1738,462,290.1738,452,294.1738,456,290.1738" style="stroke:#181818;stroke-width:1.0;"/><line style="stroke:#181818;stroke-width:1.0;" x1="337" x2="458" y1="290.1738" y2="290.1738"/><text fill="#000000" font-family="Calibri" font-size="13" font-weight="bold" lengthAdjust="spacing" textLength="15" x="344" y="284.6826">[5]</text><text fill="#000000" font-family="Calibri" font-size="13" lengthAdjust="spacing" textLength="56" x="363" y="284.6826">pass state</text><path d="M10,312.1738 L110,312.1738 L110,320.043 L100,330.043 L10,330.043 L10,312.1738 " fill="#EEEEEE" style="stroke:#000000;stroke-width:1.5;"/><rect fill="none" height="107.4766" style="stroke:#000000;stroke-width:1.5;" width="499.5" x="10" y="312.1738"/><text fill="#000000" font-family="Calibri" font-size="13" font-weight="bold" lengthAdjust="spacing" textLength="55" x="25" y="325.5518">shutdown</text><polygon fill="#181818" points="131,347.9121,141,351.9121,131,355.9121,135,351.9121" style="stroke:#181818;stroke-width:1.0;"/><line style="stroke:#181818;stroke-width:1.0;" x1="52" x2="137" y1="351.9121" y2="351.9121"/><text fill="#000000" font-family="Calibri" font-size="13" font-weight="bold" lengthAdjust="spacing" textLength="15" x="59" y="346.4209">[6]</text><text fill="#000000" font-family="Calibri" font-size="13" lengthAdjust="spacing" textLength="48" x="78" y="346.4209">SIGTERM</text><polygon fill="#181818" points="325,377.7813,335,381.7813,325,385.7813,329,381.7813" style="stroke:#181818;stroke-width:1.0;"/><line style="stroke:#181818;stroke-width:1.0;" x1="143" x2="331" y1="381.7813" y2="381.7813"/><text fill="#000000" font-family="Calibri" font-size="13" font-weight="bold" lengthAdjust="spacing" textLength="15" x="150" y="376.29">[7]</text><text fill="#000000" font-family="Calibri" font-size="13" lengthAdjust="spacing" textLength="26" x="169" y="376.29">send</text><text fill="#000000" font-family="Consolas" font-size="13" lengthAdjust="spacing" textLength="119" x="201" y="376.5186">lifespan.shutdown</text><polygon fill="#181818" points="452,407.6504,462,411.6504,452,415.6504,456,411.6504" style="stroke:#181818;stroke-width:1.0;"/><line style="stroke:#181818;stroke-width:1.0;" x1="337" x2="458" y1="411.6504" y2="411.6504"/><text fill="#000000" font-family="Calibri" font-size="13" font-weight="bold" lengthAdjust="spacing" textLength="15" x="344" y="406.1592">[8]</text><text fill="#000000" font-family="Consolas" font-size="13" lengthAdjust="spacing" textLength="77" x="363" y="406.064">__aexit__()</text><!--SRC=[ZP91ZnCn38Nl-HLMkC01X3WYj19QOAd40g9575QeSXEtYPhQG-9fuS9lnxCxsqwrGd2RYJ_xlPSuvKWGSWs5N4joW52mjUF9DdE75NVG4aOvPDx06akRLbOOjfigFSTBALBXaB9Ewv7Ms1Tz9wmVSKTmYIMlQdv8N0jBwp1GFB72JSpG12wPINzr158roQGmUEXcdAXcHGu4Bvp3eER8lw4z5UceUi06VQFgh4Tpo1soWdyzlvh1dEf-9Dhjvpdp8Q_9t34av5X6qDnkSKFdv5ThD-UHZch3ZvdfLRZVhQpgNwqkRfv_zswemjEBKH5UGbCRvMwpmADlmrNU7VMT6ncZHza19uu0tfVHtRCHzjxTGyRVUx06xtylbqYiL9VBnq-yXnCuzH6a50ewYDjhceeh8aTBdnW8GuBCGNR3KhnVB3v3fHyzDVsBSZVirMdSUSJKgwqNFxoF-UngyVRBzN-67yVyA_tFh7VXNRGOclTcwlHGDlKF]--></g></svg>