<?xml version="1.0" encoding="us-ascii" standalone="no"?><svg xmlns="http://www.w3.org/2000/svg" xmlns:xlink="http://www.w3.org/1999/xlink" contentStyleType="text/css" height="1265px" preserveAspectRatio="none" style="width:1111px;height:1265px;background:#FFFFFF;" version="1.1" viewBox="0 0 1111 1265" width="1111px" zoomAndPan="magnify"><defs/><g><rect fill="#DDDDDD" height="1253.8853" style="stroke:#181818;stroke-width:0.5;" width="87" x="110.5" y="6"/><text fill="#000000" font-family="Calibri" font-size="13" font-weight="bold" lengthAdjust="spacing" textLength="63" x="122.5" y="18.3779">ASGI server</text><rect fill="#B0E0E6" height="1253.8853" style="stroke:#181818;stroke-width:0.5;" width="184" x="263" y="6"/><text fill="#000000" font-family="Calibri" font-size="13" font-weight="bold" lengthAdjust="spacing" textLength="67" x="320" y="18.3779">This package</text><rect fill="#DDDDDD" height="1253.8853" style="stroke:#181818;stroke-width:0.5;" width="100" x="459" y="6"/><text fill="#000000" font-family="Calibri" font-size="13" font-weight="bold" lengthAdjust="spacing" textLength="63" x="477.5" y="18.3779">ASGI server</text><rect fill="#B0E0E6" height="1253.8853" style="stroke:#181818;stroke-width:0.5;" width="94" x="571" y="6"/><text fill="#000000" font-family="Calibri" font-size="13" font-weight="bold" lengthAdjust="spacing" textLength="67" x="583" y="18.3779">This package</text><rect fill="#F5DEB3" height="1253.8853" style="stroke:#181818;stroke-width:0.5;" width="201" x="692" y="6"/><text fill="#000000" font-family="Calibri" font-size="13" font-weight="bold" lengthAdjust="spacing" textLength="54" x="764" y="18.3779">User code</text><rect fill="#FFFFFF" height="393.2793" style="stroke:#FFFFFF;stroke-width:1.0;" width="967.5" x="138" y="180.6973"/><rect fill="#FFFFFF" height="173.3408" style="stroke:#FFFFFF;stroke-width:1.0;" width="375.5" x="493" y="591.9766"/><rect fill="#FFFFFF" height="369.478" style="stroke:#FFFFFF;stroke-width:1.0;" width="1036.5" x="8" y="783.3174"/><line style="stroke:#181818;stroke-width:0.5;stroke-dasharray:5.0,5.0;" x1="56" x2="56" y1="102.959" y2="1176.7954"/><line style="stroke:#181818;stroke-width:0.5;stroke-dasharray:5.0,5.0;" x1="154" x2="154" y1="102.959" y2="1176.7954"/><line style="stroke:#181818;stroke-width:0.5;stroke-dasharray:5.0,5.0;" x1="355" x2="355" y1="102.959" y2="1176.7954"/><line style="stroke:#181818;stroke-width:0.5;stroke-dasharray:5.0,5.0;" x1="509" x2="509" y1="102.959" y2="1176.7954"/><line style="stroke:#181818;stroke-width:0.5;stroke-dasharray:5.0,5.0;" x1="618" x2="618" y1="102.959" y2="1176.7954"/><line style="stroke:#181818;stroke-width:0.5;stroke-dasharray:5.0,5.0;" x1="717" x2="717" y1="102.959" y2="1176.7954"/><line style="stroke:#181818;stroke-width:0.5;stroke-dasharray:5.0,5.0;" x1="832.5" x2="832.5" y1="102.959" y2="1176.7954"/><rect fill="#87CEEB" height="885.4907" style="stroke:#181818;stroke-width:1.0;" width="10" x="827.5" y="260.3047"/><text fill="#000000" font-family="Calibri" font-size="14" lengthAdjust="spacing" textLength="58" x="24" y="99.1992">Developer</text><ellipse cx="56" cy="34.3691" fill="#E2E2F0" rx="8" ry="8" style="stroke:#181818;stroke-width:0.5;"/><path d="M56,42.3691 L56,69.3691 M43,50.3691 L69,50.3691 M56,69.3691 L43,84.3691 M56,69.3691 L69,84.3691 " fill="none" style="stroke:#181818;stroke-width:0.5;"/><rect fill="#E2E2F0" height="31.0898" rx="2.5" ry="2.5" style="stroke:#181818;stroke-width:0.5;" width="50" x="129" y="70.8691"/><text fill="#000000" font-family="Calibri" font-size="14" lengthAdjust="spacing" textLength="36" x="136" y="91.1992">Server</text><rect fill="#E2E2F0" height="31.0898" rx="2.5" ry="2.5" style="stroke:#181818;stroke-width:0.5;" width="176" x="267" y="70.8691"/><text fill="#000000" font-family="Calibri" font-size="14" lengthAdjust="spacing" textLength="162" x="274" y="91.1992">Django ASGI lifespan handler</text><rect fill="#E2E2F0" height="31.0898" rx="2.5" ry="2.5" style="stroke:#181818;stroke-width:0.5;" width="92" x="463" y="70.8691"/><text fill="#000000" font-family="Calibri" font-size="14" lengthAdjust="spacing" textLength="78" x="470" y="91.1992">Lifespan state</text><rect fill="#E2E2F0" height="31.0898" rx="2.5" ry="2.5" style="stroke:#181818;stroke-width:0.5;" width="82" x="577" y="70.8691"/><text fill="#000000" font-family="Calibri" font-size="14" lengthAdjust="spacing" textLength="68" x="584" y="91.1992">Middleware</text><rect fill="#E2E2F0" height="31.0898" rx="2.5" ry="2.5" style="stroke:#181818;stroke-width:0.5;" width="42" x="696" y="70.8691"/><text fill="#000000" font-family="Calibri" font-size="14" lengthAdjust="spacing" textLength="28" x="703" y="91.1992">View</text><rect fill="#E2E2F0" height="31.0898" rx="2.5" ry="2.5" style="stroke:#181818;stroke-width:0.5;" width="113" x="776" y="70.8691"/><text fill="#000000" font-family="Calibri" font-size="14" lengthAdjust="spacing" textLength="99" x="783" y="91.1992">Context Manager</text><text fill="#000000" font-family="Calibri" font-size="14" lengthAdjust="spacing" textLength="58" x="24" y="1250.1255">Developer</text><ellipse cx="56" cy="1185.2954" fill="#E2E2F0" rx="8" ry="8" style="stroke:#181818;stroke-width:0.5;"/><path d="M56,1193.2954 L56,1220.2954 M43,1201.2954 L69,1201.2954 M56,1220.2954 L43,1235.2954 M56,1220.2954 L69,1235.2954 " fill="none" style="stroke:#181818;stroke-width:0.5;"/><rect fill="#E2E2F0" height="31.0898" rx="2.5" ry="2.5" style="stroke:#181818;stroke-width:0.5;" width="50" x="129" y="1176.7954"/><text fill="#000000" font-family="Calibri" font-size="14" lengthAdjust="spacing" textLength="36" x="136" y="1197.1255">Server</text><rect fill="#E2E2F0" height="31.0898" rx="2.5" ry="2.5" style="stroke:#181818;stroke-width:0.5;" width="176" x="267" y="1176.7954"/><text fill="#000000" font-family="Calibri" font-size="14" lengthAdjust="spacing" textLength="162" x="274" y="1197.1255">Django ASGI lifespan handler</text><rect fill="#E2E2F0" height="31.0898" rx="2.5" ry="2.5" style="stroke:#181818;stroke-width:0.5;" width="92" x="463" y="1176.7954"/><text fill="#000000" font-family="Calibri" font-size="14" lengthAdjust="spacing" textLength="78" x="470" y="1197.1255">Lifespan state</text><rect fill="#E2E2F0" height="31.0898" rx="2.5" ry="2.5" style="stroke:#181818;stroke-width:0.5;" width="82" x="577" y="1176.7954"/><text fill="#000000" font-family="Calibri" font-size="14" lengthAdjust="spacing" textLength="68" x="584" y="1197.1255">Middleware</text><rect fill="#E2E2F0" height="31.0898" rx="2.5" ry="2.5" style="stroke:#181818;stroke-width:0.5;" width="42" x="696" y="1176.7954"/><text fill="#000000" font-family="Calibri" font-size="14" lengthAdjust="spacing" textLength="28" x="703" y="1197.1255">View</text><rect fill="#E2E2F0" height="31.0898" rx="2.5" ry="2.5" style="stroke:#181818;stroke-width:0.5;" width="113" x="776" y="1176.7954"/><text fill="#000000" font-family="Calibri" font-size="14" lengthAdjust="spacing" textLength="99" x="783" y="1197.1255">Context Manager</text><path d="M87.5,115.959 L87.5,140.959 L220.5,140.959 L220.5,125.959 L210.5,115.959 L87.5,115.959 " fill="#FEFFDD" style="stroke:#181818;stroke-width:0.5;"/><path d="M210.5,115.959 L210.5,125.959 L220.5,125.959 L210.5,115.959 " fill="#FEFFDD" style="stroke:#181818;stroke-width:0.5;"/><text fill="#000000" font-family="Calibri" font-size="13" lengthAdjust="spacing" textLength="112" x="93.5" y="133.3369">For example uvicorn</text><path d="M432.5,115.959 L432.5,140.959 L585.5,140.959 L585.5,125.959 L575.5,115.959 L432.5,115.959 " fill="#FEFFDD" style="stroke:#181818;stroke-width:0.5;"/><path d="M575.5,115.959 L575.5,125.959 L585.5,125.959 L575.5,115.959 " fill="#FEFFDD" style="stroke:#181818;stroke-width:0.5;"/><text fill="#000000" font-family="Calibri" font-size="13" lengthAdjust="spacing" textLength="132" x="438.5" y="133.3369">Managed by ASGI server</text><path d="M649,115.959 L649,140.959 L785,140.959 L785,125.959 L775,115.959 L649,115.959 " fill="#FEFFDD" style="stroke:#181818;stroke-width:0.5;"/><path d="M775,115.959 L775,125.959 L785,125.959 L775,115.959 " fill="#FEFFDD" style="stroke:#181818;stroke-width:0.5;"/><text fill="#000000" font-family="Calibri" font-size="13" lengthAdjust="spacing" textLength="115" x="655" y="133.3369">Your code with views</text><path d="M795,115.959 L795,140.959 L870,140.959 L870,125.959 L860,115.959 L795,115.959 " fill="#FEFFDD" style="stroke:#181818;stroke-width:0.5;"/><path d="M860,115.959 L860,125.959 L870,125.959 L860,115.959 " fill="#FEFFDD" style="stroke:#181818;stroke-width:0.5;"/><text fill="#000000" font-family="Calibri" font-size="13" lengthAdjust="spacing" textLength="54" x="801" y="133.3369">Your code</text><polygon fill="#181818" points="142,164.6973,152,168.6973,142,172.6973,146,168.6973" style="stroke:#181818;stroke-width:1.0;"/><line style="stroke:#181818;stroke-width:1.0;" x1="56" x2="148" y1="168.6973" y2="168.6973"/><text fill="#000000" font-family="Calibri" font-size="13" font-weight="bold" lengthAdjust="spacing" textLength="15" x="63" y="163.2061">[1]</text><text fill="#000000" font-family="Calibri" font-size="13" lengthAdjust="spacing" textLength="26" x="82" y="163.2061">start</text><path d="M138,180.6973 L223,180.6973 L223,188.5664 L213,198.5664 L138,198.5664 L138,180.6973 " fill="#EEEEEE" style="stroke:#000000;stroke-width:1.5;"/><rect fill="none" height="393.2793" style="stroke:#000000;stroke-width:1.5;" width="967.5" x="138" y="180.6973"/><text fill="#000000" font-family="Calibri" font-size="13" font-weight="bold" lengthAdjust="spacing" textLength="40" x="153" y="194.0752">startup</text><polygon fill="#181818" points="343,226.4355,353,230.4355,343,234.4355,347,230.4355" style="stroke:#181818;stroke-width:1.0;"/><line style="stroke:#181818;stroke-width:1.0;" x1="154" x2="349" y1="230.4355" y2="230.4355"/><text fill="#000000" font-family="Calibri" font-size="13" font-weight="bold" lengthAdjust="spacing" textLength="15" x="161" y="224.9443">[2]</text><text fill="#000000" font-family="Calibri" font-size="13" lengthAdjust="spacing" textLength="26" x="180" y="224.9443">send</text><text fill="#000000" font-family="Consolas" font-size="13" lengthAdjust="spacing" textLength="112" x="212" y="225.1729">lifespan.startup</text><polygon fill="#181818" points="815.5,256.3047,825.5,260.3047,815.5,264.3047,819.5,260.3047" style="stroke:#181818;stroke-width:1.0;"/><line style="stroke:#181818;stroke-width:1.0;" x1="355" x2="821.5" y1="260.3047" y2="260.3047"/><text fill="#000000" font-family="Calibri" font-size="13" font-weight="bold" lengthAdjust="spacing" textLength="15" x="362" y="254.8135">[3]</text><text fill="#000000" font-family="Consolas" font-size="13" lengthAdjust="spacing" textLength="84" x="381" y="254.7183">__aenter__()</text><path d="M842.5,243.4355 L842.5,428.4355 L1023.5,428.4355 L1023.5,253.4355 L1013.5,243.4355 L842.5,243.4355 " fill="#FEFFDD" style="stroke:#181818;stroke-width:0.5;"/><path d="M1013.5,243.4355 L1013.5,253.4355 L1023.5,253.4355 L1013.5,243.4355 " fill="#FEFFDD" style="stroke:#181818;stroke-width:0.5;"/><text fill="#000000" font-family="Calibri" font-size="13" lengthAdjust="spacing" textLength="159" x="848.5" y="260.8135">This part of code is executed:</text><text fill="#000000" font-family="Calibri" font-size="13" lengthAdjust="spacing" textLength="3" x="848.5" y="276.6826">&#160;</text><text fill="#000000" font-family="monospace" font-size="13" lengthAdjust="spacing" textLength="160" x="848.5" y="294.2021">@asynccontextmanager</text><text fill="#000000" font-family="monospace" font-size="13" lengthAdjust="spacing" textLength="160" x="848.5" y="312.1343">async&#160;def&#160;manager():</text><text fill="#000000" font-family="monospace" font-size="13" lengthAdjust="spacing" textLength="104" x="880.5" y="330.0664">-&gt;&#160;&#160;state&#160;=&#160;{</text><text fill="#000000" font-family="monospace" font-size="13" lengthAdjust="spacing" textLength="80" x="880.5" y="347.9985">-&gt;&#160;&#160;&#160;&#160;&#160;...</text><text fill="#000000" font-family="monospace" font-size="13" lengthAdjust="spacing" textLength="32" x="880.5" y="365.9307">-&gt;&#160;}</text><text fill="#000000" font-family="monospace" font-size="13" lengthAdjust="spacing" textLength="16" x="880.5" y="383.8628">-&gt;</text><text fill="#000000" font-family="monospace" font-size="13" lengthAdjust="spacing" textLength="112" x="880.5" y="401.7949">-&gt;&#160;yield&#160;state</text><text fill="#000000" font-family="monospace" font-size="13" lengthAdjust="spacing" textLength="24" x="880.5" y="419.7271">...</text><line style="stroke:#181818;stroke-width:1.0;" x1="837.5" x2="879.5" y1="455.5" y2="455.5"/><line style="stroke:#181818;stroke-width:1.0;" x1="879.5" x2="879.5" y1="455.5" y2="468.5"/><line style="stroke:#181818;stroke-width:1.0;" x1="838.5" x2="879.5" y1="468.5" y2="468.5"/><polygon fill="#181818" points="848.5,464.5,838.5,468.5,848.5,472.5,844.5,468.5" style="stroke:#181818;stroke-width:1.0;"/><text fill="#000000" font-family="Calibri" font-size="13" font-weight="bold" lengthAdjust="spacing" textLength="15" x="844.5" y="450.0088">[4]</text><text fill="#000000" font-family="Consolas" font-size="13" lengthAdjust="spacing" textLength="35" x="863.5" y="449.9136">yield</text><polygon fill="#181818" points="366,494.3691,356,498.3691,366,502.3691,362,498.3691" style="stroke:#181818;stroke-width:1.0;"/><line style="stroke:#181818;stroke-width:1.0;stroke-dasharray:2.0,2.0;" x1="360" x2="826.5" y1="498.3691" y2="498.3691"/><text fill="#000000" font-family="Calibri" font-size="13" font-weight="bold" lengthAdjust="spacing" textLength="15" x="372" y="492.8779">[5]</text><text fill="#000000" font-family="Calibri" font-size="13" lengthAdjust="spacing" textLength="73" x="391" y="492.8779">collect states</text><path d="M842.5,481.5 L842.5,538.5 L1084.5,538.5 L1084.5,491.5 L1074.5,481.5 L842.5,481.5 " fill="#FEFFDD" style="stroke:#181818;stroke-width:0.5;"/><path d="M1074.5,481.5 L1074.5,491.5 L1084.5,491.5 L1074.5,481.5 " fill="#FEFFDD" style="stroke:#181818;stroke-width:0.5;"/><text fill="#000000" font-family="Calibri" font-size="13" lengthAdjust="spacing" textLength="221" x="848.5" y="498.8779">There can be multiple context managers,</text><text fill="#000000" font-family="Calibri" font-size="13" lengthAdjust="spacing" textLength="126" x="848.5" y="514.7471">each managing its own</text><text fill="#000000" font-family="Consolas" font-size="13" lengthAdjust="spacing" textLength="84" x="848.5" y="530.8447">__aenter__()</text><text fill="#000000" font-family="Calibri" font-size="13" lengthAdjust="spacing" textLength="21" x="938.5" y="530.6162">and</text><text fill="#000000" font-family="Consolas" font-size="13" lengthAdjust="spacing" textLength="77" x="962.5" y="530.8447">__aexit__()</text><text fill="#000000" font-family="Calibri" font-size="13" lengthAdjust="spacing" textLength="3" x="1039.5" y="530.6162">.</text><polygon fill="#181818" points="497,561.9766,507,565.9766,497,569.9766,501,565.9766" style="stroke:#181818;stroke-width:1.0;"/><line style="stroke:#181818;stroke-width:1.0;" x1="355" x2="503" y1="565.9766" y2="565.9766"/><text fill="#000000" font-family="Calibri" font-size="13" font-weight="bold" lengthAdjust="spacing" textLength="15" x="362" y="560.4854">[6]</text><text fill="#000000" font-family="Calibri" font-size="13" lengthAdjust="spacing" textLength="68" x="381" y="560.4854">update state</text><path d="M493,591.9766 L562,591.9766 L562,599.8457 L552,609.8457 L493,609.8457 L493,591.9766 " fill="#EEEEEE" style="stroke:#000000;stroke-width:1.5;"/><rect fill="none" height="173.3408" style="stroke:#000000;stroke-width:1.5;" width="375.5" x="493" y="591.9766"/><text fill="#000000" font-family="Calibri" font-size="13" font-weight="bold" lengthAdjust="spacing" textLength="24" x="508" y="605.3545">loop</text><text fill="#000000" font-family="Calibri" font-size="11" font-weight="bold" lengthAdjust="spacing" textLength="153" x="577" y="604.4502">[On each incoming HTTP request]</text><polygon fill="#181818" points="520,637.7148,510,641.7148,520,645.7148,516,641.7148" style="stroke:#181818;stroke-width:1.0;"/><line style="stroke:#181818;stroke-width:1.0;" x1="514" x2="617" y1="641.7148" y2="641.7148"/><text fill="#000000" font-family="Calibri" font-size="13" font-weight="bold" lengthAdjust="spacing" textLength="15" x="526" y="636.2236">[7]</text><text fill="#000000" font-family="Calibri" font-size="13" lengthAdjust="spacing" textLength="55" x="545" y="636.2236">read state</text><polygon fill="#181818" points="606,667.584,616,671.584,606,675.584,610,671.584" style="stroke:#181818;stroke-width:1.0;"/><line style="stroke:#181818;stroke-width:1.0;stroke-dasharray:2.0,2.0;" x1="509" x2="612" y1="671.584" y2="671.584"/><text fill="#000000" font-family="Calibri" font-size="13" font-weight="bold" lengthAdjust="spacing" textLength="15" x="516" y="666.0928">[8]</text><text fill="#000000" font-family="Calibri" font-size="13" lengthAdjust="spacing" textLength="27" x="535" y="666.0928">state</text><polygon fill="#181818" points="705,697.4531,715,701.4531,705,705.4531,709,701.4531" style="stroke:#181818;stroke-width:1.0;"/><line style="stroke:#181818;stroke-width:1.0;" x1="618" x2="711" y1="701.4531" y2="701.4531"/><text fill="#000000" font-family="Calibri" font-size="13" font-weight="bold" lengthAdjust="spacing" textLength="15" x="625" y="695.9619">[9]</text><text fill="#000000" font-family="Calibri" font-size="13" lengthAdjust="spacing" textLength="56" x="644" y="695.9619">pass state</text><path d="M586.5,714.4531 L586.5,759.4531 L847.5,759.4531 L847.5,724.4531 L837.5,714.4531 L586.5,714.4531 " fill="#FEFFDD" style="stroke:#181818;stroke-width:0.5;"/><path d="M837.5,714.4531 L837.5,724.4531 L847.5,724.4531 L837.5,714.4531 " fill="#FEFFDD" style="stroke:#181818;stroke-width:0.5;"/><text fill="#000000" font-family="monospace" font-size="13" lengthAdjust="spacing" textLength="192" x="592.5" y="733.4814">async&#160;def&#160;view(request):</text><text fill="#000000" font-family="monospace" font-size="13" lengthAdjust="spacing" textLength="208" x="624.5" y="751.4136">var&#160;=&#160;request.state["..."]</text><path d="M8,783.3174 L108,783.3174 L108,791.1865 L98,801.1865 L8,801.1865 L8,783.3174 " fill="#EEEEEE" style="stroke:#000000;stroke-width:1.5;"/><rect fill="none" height="369.478" style="stroke:#000000;stroke-width:1.5;" width="1036.5" x="8" y="783.3174"/><text fill="#000000" font-family="Calibri" font-size="13" font-weight="bold" lengthAdjust="spacing" textLength="55" x="23" y="796.6953">shutdown</text><polygon fill="#FEFFDD" points="85,816.1865,223,816.1865,233,835.1865,223,855.1865,85,855.1865,75,835.1865,85,816.1865" style="stroke:#181818;stroke-width:0.5;"/><text fill="#000000" font-family="Calibri" font-size="13" lengthAdjust="spacing" textLength="110" x="87" y="832.5645">When uvicorn stops</text><text fill="#000000" font-family="Calibri" font-size="13" lengthAdjust="spacing" textLength="134" x="87" y="848.4336">(CTRL+C, TERM signal, ...)</text><polygon fill="#181818" points="142,878.7939,152,882.7939,142,886.7939,146,882.7939" style="stroke:#181818;stroke-width:1.0;"/><line style="stroke:#181818;stroke-width:1.0;" x1="56" x2="148" y1="882.7939" y2="882.7939"/><text fill="#000000" font-family="Calibri" font-size="13" font-weight="bold" lengthAdjust="spacing" textLength="22" x="63" y="877.3027">[10]</text><text fill="#000000" font-family="Calibri" font-size="13" lengthAdjust="spacing" textLength="48" x="89" y="877.3027">SIGTERM</text><polygon fill="#181818" points="343,908.6631,353,912.6631,343,916.6631,347,912.6631" style="stroke:#181818;stroke-width:1.0;"/><line style="stroke:#181818;stroke-width:1.0;" x1="154" x2="349" y1="912.6631" y2="912.6631"/><text fill="#000000" font-family="Calibri" font-size="13" font-weight="bold" lengthAdjust="spacing" textLength="22" x="161" y="907.1719">[11]</text><text fill="#000000" font-family="Calibri" font-size="13" lengthAdjust="spacing" textLength="26" x="187" y="907.1719">send</text><text fill="#000000" font-family="Consolas" font-size="13" lengthAdjust="spacing" textLength="119" x="219" y="907.4004">lifespan.shutdown</text><polygon fill="#181818" points="815.5,938.5322,825.5,942.5322,815.5,946.5322,819.5,942.5322" style="stroke:#181818;stroke-width:1.0;"/><line style="stroke:#181818;stroke-width:1.0;" x1="355" x2="821.5" y1="942.5322" y2="942.5322"/><text fill="#000000" font-family="Calibri" font-size="13" font-weight="bold" lengthAdjust="spacing" textLength="22" x="362" y="937.041">[12]</text><text fill="#000000" font-family="Consolas" font-size="13" lengthAdjust="spacing" textLength="77" x="388" y="936.9458">__aexit__()</text><path d="M842.5,925.6631 L842.5,1092.6631 L1023.5,1092.6631 L1023.5,935.6631 L1013.5,925.6631 L842.5,925.6631 " fill="#FEFFDD" style="stroke:#181818;stroke-width:0.5;"/><path d="M1013.5,925.6631 L1013.5,935.6631 L1023.5,935.6631 L1013.5,925.6631 " fill="#FEFFDD" style="stroke:#181818;stroke-width:0.5;"/><text fill="#000000" font-family="Calibri" font-size="13" lengthAdjust="spacing" textLength="159" x="848.5" y="943.041">This part of code is executed:</text><text fill="#000000" font-family="Calibri" font-size="13" lengthAdjust="spacing" textLength="3" x="848.5" y="958.9102">&#160;</text><text fill="#000000" font-family="monospace" font-size="13" lengthAdjust="spacing" textLength="160" x="848.5" y="976.4297">@asynccontextmanager</text><text fill="#000000" font-family="monospace" font-size="13" lengthAdjust="spacing" textLength="160" x="848.5" y="994.3618">async&#160;def&#160;manager():</text><text fill="#000000" font-family="monospace" font-size="13" lengthAdjust="spacing" textLength="24" x="880.5" y="1012.2939">...</text><text fill="#000000" font-family="monospace" font-size="13" lengthAdjust="spacing" textLength="88" x="880.5" y="1030.2261">yield&#160;state</text><text fill="#000000" font-family="monospace" font-size="13" lengthAdjust="spacing" textLength="48" x="880.5" y="1048.1582">-&gt;&#160;...</text><text fill="#000000" font-family="monospace" font-size="13" lengthAdjust="spacing" textLength="48" x="880.5" y="1066.0903">-&gt;&#160;...</text><text fill="#000000" font-family="monospace" font-size="13" lengthAdjust="spacing" textLength="48" x="880.5" y="1084.0225">-&gt;&#160;...</text><line style="stroke:#181818;stroke-width:1.0;" x1="837.5" x2="879.5" y1="1119.7954" y2="1119.7954"/><line style="stroke:#181818;stroke-width:1.0;" x1="879.5" x2="879.5" y1="1119.7954" y2="1132.7954"/><line style="stroke:#181818;stroke-width:1.0;" x1="838.5" x2="879.5" y1="1132.7954" y2="1132.7954"/><polygon fill="#181818" points="848.5,1128.7954,838.5,1132.7954,848.5,1136.7954,844.5,1132.7954" style="stroke:#181818;stroke-width:1.0;"/><text fill="#000000" font-family="Calibri" font-size="13" font-weight="bold" lengthAdjust="spacing" textLength="22" x="844.5" y="1114.3042">[13]</text><text fill="#000000" font-family="Calibri" font-size="13" lengthAdjust="spacing" textLength="29" x="870.5" y="1114.3042">close</text><!--SRC=[nLPHRzis47xdhxWg3qsmsExwQAJ1DdVj0ZHRqRWRXg88QEfYSQP8ZQGikytwstSa9Lboqc7Oo_H4tdqyVlVT7UsdJwGMgiuH2kyhDv_DB6-cQ-cBUbKxjC9eZzfFXIbd5VTMRYR2yStCQ9pat6ucbUBQrwMQ-09Bd9LSwbbSJYkoClQaidnTSl1eFe6tDR92qcr2Mg6GkS8q81HthhTifAwuvIMuWkUcaNeDTroveMV5nMPjJQtpXL76GbD8F_JdUCThvLyHzvzvYR3WIgwiV8YuDjguYWlC3rYZdI520x2I6ls-GZ3M5sRW21ogArsWbPvhWV2SCIuyCSfUuXQLgT1cm1q49HbRcHryV_Fw2cYt9GC5yLB8YWI4x2RQ4dehXR6QeSxfI3gtBAG3OhhXQuIJjwR9qVwWICrHa9T_SBqswH8bxv1oqr1mdQisTANgjHn7_YgZDrq0vxd7U3ok_WElQvaJXORR5ARijwDOxua524FTSV9RWToFO_mgiOcdjxGOknQXINSUhhac6YdJCgtx2xJnL41AifDt3g-eKBZZPQMmrtm61s3CTjv6pM6r7sdrT0WzP3I7tqsTqXW52wm7FcXenABHZM0jxM4KncjlT5sko9rTh2u_FFkOCHPQ2YQN7N6O1xhMizYJGK0QYMIgAzQ129yw8C196O0iw_faseApZBKOGhTq29vbNsvlEJq5Q6zlJyy8HPqkjwHG3pgvsUnZxPFOLguBpu2-jaci1tENigSzxb3K7lCvYvYBOB-Co- -ussiXKb6xEWP7j8VPxQuyFPj7H_Y8RQeOl83F8ojzq-bqQFfhi1dQzn9LtdPvP-wENimIGv8jfCSOw_8-qYa68Nrwzr1rOPH2uTCTxg5GQEbjf9bRaQpqGCdGcwqItINkF6AHYoAPmXCflGFJwEWPbEfBgXL9HyLkxJlfatNQvt8eU59m3dMLyzH0QU0PKyRqVVMBJjVJRuSfm_K_BPTlmUAVDJhF3iCmZ6YHTz8E01UJIOzuuAJJOKB8LOLVYEGVZzHnxnnQ97XFMqg3DjboImtIsgSnv8UCQfnzVBJACVNnJ1MrpuFKnOCd9KQWfqltK-cygLmqdowMxzvyipY7vO_lhi79jURgF3JNMRWZndfafc-kNWVylnpWbja_Jt1V_lzbIeU3-DYq4UEZMVtAzhXGZmwZK8R-EDpVFxk_PpaUFrZa-FOvUKAD_mO0]--></g></svg>